Coordinates

Units are S.I. units (second, meters, Newtons, ...)
If the header above contains a line with 'inDegrees', this indicates whether rotational values are in degrees (yes) or radians (no).

inDegrees=no
nColumns=21
nRows=27
DataType=double
version=3
OpenSimVersion=4.6-2026-03-31-d6972f9e6
endheader
time	/jointset/ground_pelvis/pelvis_tilt/value	/jointset/ground_pelvis/pelvis_list/value	/jointset/ground_pelvis/pelvis_rotation/value	/jointset/ground_pelvis/pelvis_tx/value	/jointset/ground_pelvis/pelvis_ty/value	/jointset/ground_pelvis/pelvis_tz/value	/jointset/hip_r/hip_flexion_r/value	/jointset/hip_r/hip_adduction_r/value	/jointset/hip_r/hip_rotation_r/value	/jointset/walker_knee_r/knee_angle_r/value	/jointset/patellofemoral_r/knee_angle_r_beta/value	/jointset/ankle_r/ankle_angle_r/value	/jointset/subtalar_r/subtalar_angle_r/value	/jointset/hip_l/hip_flexion_l/value	/jointset/hip_l/hip_adduction_l/value	/jointset/hip_l/hip_rotation_l/value	/jointset/walker_knee_l/knee_angle_l/value	/jointset/patellofemoral_l/knee_angle_l_beta/value	/jointset/ankle_l/ankle_angle_l/value	/jointset/subtalar_l/subtalar_angle_l/value
142.496	-0.1854227523596411	-0.0009248937103777312	0.0609770127440464	0.8986446997549213	1.050077333806037	-0.2922812429097527	-0.1217526768492031	0.006390281934040759	0.02616154034272904	0.5642796234860702	0.5642796231527702	-0.4142324985721152	-0.1599082666186189	0.5527689456605968	-0.002114309171835621	0.04361486457614098	0.2972384586575401	0.2972384577329237	0.01812874199269622	0.07064015824961618
142.5	-0.1817536421390403	-0.001887602326114563	0.05946267972430933	0.8987348663300667	1.049410419505139	-0.2922083223380323	-0.1183532901804109	0.009217566941296261	0.03805865088035519	0.5945184400694991	0.594518439703413	-0.4129886882959636	-0.1678317059652037	0.5429976225130563	-0.004096494285745087	0.04035888680079389	0.2758858374142831	0.2758858363582039	0.01743321696536006	0.08163126060866939
142.504	-0.1777870121007993	-0.002507314590944334	0.05798931932195966	0.8987630179303895	1.048583683683481	-0.2921222820661147	-0.1145700324226188	0.0118227557071117	0.04956439395857858	0.6261530795114276	0.6261530791158512	-0.4109700502499058	-0.1753492623153943	0.5335382021813458	-0.005766432540840136	0.03670155914446689	0.2576010449958469	0.2576010438200117	0.01655203697284756	0.09138623089987638
142.508	-0.1735533689206387	-0.002732083713423475	0.05662165353210152	0.8987336622636167	1.047596490797935	-0.2920262326671769	-0.1104362470660103	0.01412029502163129	0.06047381178390433	0.6590325963521236	0.6590325959336483	-0.4083304215322818	-0.1823905825298486	0.5244626695772184	-0.007030761686770147	0.03271749393891658	0.2425038156177941	0.2425038143385193	0.01562319307175799	0.09984329283853197
142.512	-0.1690819426558077	-0.002522728095795718	0.05542473777277345	0.8986510120822885	1.04644815576542	-0.291923805464034	-0.1059855237745779	0.01603208061379206	0.0705958945132944	0.6930054215007082	0.6930054210694649	-0.4052267548942702	-0.1889108303229739	0.5158387197681762	-0.007806877497260576	0.02850374362249922	0.2306969270251575	0.2306969256621284	0.01479649342691521	0.1069401879483186
142.516	-0.1644010081960945	-0.001853220354387265	0.05446310755623979	0.8985187701925678	1.045137967977503	-0.2918191242977466	-0.1012501317200701	0.01748866919335404	0.07975787089733376	0.7279220953675631	0.7279220949374603	-0.4018155666135644	-0.1948916803352242	0.5077294396965718	-0.008024010587942545	0.0241765436338491	0.2222639566179237	0.2222639551927274	0.01422972921781897	0.1126149653960095
142.52	-0.1595382762498939	-0.0007103966951017545	0.05379956465165157	0.8983399564656078	1.043665258463154	-0.291716720962921	-0.09625954828103606	0.01843001415669662	0.08780918637458311	0.7636376695661287	0.7636376691551005	-0.3982492257174259	-0.2003411749327703	0.5001927128420575	-0.007623918952538342	0.01986661966488385	0.2172666739212509	0.2172666724558584	0.0140844872261593	0.1168082596428461
142.524	-0.1545212171086733	0.0009066805010058087	0.05349390578215247	0.8981167761874572	1.042029510291836	-0.291621419964176	-0.09103924633596787	0.0188060456439968	0.09462473912266733	0.8000136533414038	0.8000136529715391	-0.3946722128448263	-0.2052923573335755	0.4932803813321811	-0.006561346018630511	0.01571373485586974	0.2157423499265547	0.2157423484419531	0.01452175229289363	0.1194668319403119
142.528	-0.1493772994672191	0.002987577058679574	0.05360165680383105	0.8978505348078974	1.040230508092463	-0.2915381994330698	-0.08560976262502723	0.0185771848421832	0.1001072832934701	0.836919446191441	0.8369194458887416	-0.3912174736894085	-0.209800730846409	0.4870372170595488	-0.004804323586028922	0.01186086204876197	0.2177010985172368	0.2177010970323617	0.01569741800853356	0.1205480768550266
142.532	-0.1441341690789552	0.005511579409105111	0.05417271727852453	0.8975416061105106	1.038268521045737	-0.2914720229746846	-0.07998600540776057	0.01771470948245604	0.1041891170208587	0.87423326292269	0.874233262716184	-0.3880029926736538	-0.213940701702992	0.4814997456422526	-0.002334339757576952	0.008448126615827459	0.2231232997519852	0.2231232982830493	0.01775782877162628	0.1200251374478587
142.536	-0.1388197507108182	0.008449035138209424	0.05524986076690111	0.8971894581140638	1.036144514026658	-0.2914276415083345	-0.07417679914765106	0.01620089821047905	0.1068331458644865	0.9118425712811621	0.9118425712011992	-0.3851287303929142	-0.2178012334555982	0.4766949567913806	0.0008536170949952559	0.005606688744676951	0.2319572175267552	0.2319572160870672	0.02083551448429584	0.1178921891791394
142.54	-0.1334622125295716	0.01176290252643273	0.05686712308787939	0.896792737208803	1.033860381997509	-0.2914093723828791	-0.06818471567202697	0.01402893816553479	0.1080333364179385	0.9496440574863582	0.9496440575621129	-0.382674083218206	-0.2214809947626065	0.4726389283485749	0.004751127517536562	0.003452815205464694	0.2441169865030123	0.2441169851033668	0.02504529839174457	0.1141693896124637
142.544	-0.1280897237679015	0.0154104480124289	0.05904815949816166	0.8963494067738211	1.031419202035668	-0.2914208677133896	-0.06200625231304237	0.01120260998091104	0.1078145503725028	0.9875431423232984	0.9875431425797048	-0.3806960110276343	-0.2250832990677677	0.4693353950271503	0.00933652052056159	0.002082414700954101	0.2594811525731998	0.2594811512228133	0.0304809411021985	0.1089070068329499
142.548	-0.1227299757082551	0.01934501208630835	0.061804671365535	0.895856932275036	1.028825494352103	-0.2914648851842565	-0.05563237235143661	0.007735792360475262	0.1062317631085719	1.025453091700868	1.025453092155305	-0.3792279327966922	-0.2287110901283685	0.4667743234233205	0.01457515700341104	0.001566313266615734	0.2778919159207731	0.2778919146285423	0.0372124436887737	0.1021883480462244
142.552	-0.1174095509813499	0.0235177446138921	0.06513499606214913	0.8953125015830928	1.026085475238445	-0.291543073641904	-0.04904928728680943	0.00365185004381076	0.1033687009881395	1.063293810878108	1.063293811537252	-0.3782794104223045	-0.232462129793327	0.4649306583931914	0.0204197966849846	0.001946521513009197	0.2991551812706122	0.299155180046293	0.04528409129548074	0.09413125919057085
142.556	-0.112153390250272	0.02787921042749062	0.06902292712771284	0.8947132669125848	1.0232072715174	-0.2916557845800586	-0.04223916770078543	-0.001017039108565139	0.09933596458529841	1.100990475211761	1.100990476069091	-0.3778365471736925	-0.2364244405883242	0.4637635746277259	0.02681103011611802	0.003233670248477239	0.3230415140334106	0.3230415128884018	0.05471330475185368	0.08488808036734863
142.56	-0.1069846580776445	0.03238077749818718	0.07343681624979256	0.8940565937090189	1.02020106065902	-0.2918019208771746	-0.0351804146749873	-0.006230574803525037	0.09426871681977596	1.138472170801381	1.138472171835754	-0.3778629842115512	-0.2406720254668052	0.4632166183476922	0.03367777442521269	0.005405712749902902	0.349288102518238	0.3492881014659305	0.06549038294527623	0.07464400483307679
142.564	-0.1019251107099177	0.03697571419849108	0.07832902382362392	0.8933403035560422	1.017079116657489	-0.2919788352477929	-0.02784737379369226	-0.01194099602537066	0.08832397739540042	1.175670646845305	1.175670648020735	-0.3783014304189541	-0.2452609716222047	0.46321887814609	0.04093785022099576	0.008407948109612581	0.3776017654080955	0.377601764463939	0.07757921992316642	0.06361384687457555
142.568	-0.09699575788115972	0.04161995839305897	0.08363581253190995	0.8925629017296932	1.013855768506902	-0.2921822905583424	-0.02020975787916995	-0.01809367860148197	0.08167749970204624	1.212519177544158	1.212519178810829	-0.379075733324959	-0.2502261690447534	0.4636869453307969	0.04849868673864639	0.01215437014775549	0.4076629530314413	0.4076629522128615	0.09091901817940472	0.0520373074086034
142.572	-0.09221750810936087	0.04627256621833101	0.08927778224128947	0.891723780874434	1.010547289114399	-0.2924064913080432	-0.01223217602100368	-0.02462766317664606	0.07452018994858901	1.24895150261718	1.24895150391372	-0.380093489339634	-0.2555789010005761	0.4645272932996403	0.056258231574648	0.01653027651569608	0.4391306493942039	0.4391306487203362	0.1054268979531115	0.04017291982461042
142.576	-0.08761164407722846	0.05089586621919673	0.09516090479686694	0.8908233904664682	1.007171723543797	-0.2926441911866684	-0.003873978678566505	-0.03147612504583618	0.06705408788147735	1.284900864878535	1.284900866135479	-0.381249119635432	-0.2613054567835776	0.4656388676331598	0.06410613817380462	0.02139602519014958	0.4716480662976416	0.4716480657887227	0.1210012027841811	0.02829093929904894
142.58	-0.08320010244840308	0.05545535613943792	0.1011781577707897	0.8898633629877735	1.003748660144626	-0.2928868771343591	0.004910528439956856	-0.03856681567055376	0.05948799135877817	1.320299192318773	1.320299193463032	-0.3824272915947726	-0.2673667843083545	0.4669157845005558	0.0719252837342079	0.02659179574602305	0.5048489595561476	0.504848959232526	0.1375252804285705	0.01666550598475558
142.584	-0.07900548201850678	0.05991941782880623	0.1072117233881584	0.8888465923651474	1.000298956921537	-0.2931250258464946	0.0141713897316379	-0.04582254457196308	0.05203281064963051	1.355076442539204	1.355076443499282	-0.3835065552089039	-0.2736991381413215	0.4682499396330533	0.07959366583537318	0.03194315191327017	0.5383643193670754	0.5383643192480464	0.1548715224666913	0.005566457648589352
142.588	-0.07505068564533524	0.06425894734234418	0.113135734415869	0.88777726240285	0.9968444397124839	-0.2933484250123379	0.02396168880444057	-0.05316179074074963	0.04489669354238198	1.38916010636628	1.38916010707795	-0.3843630483459897	-0.2802156782834697	0.4695333128323692	0.08698671824385788	0.03726713317190561	0.5718291874046636	0.5718291875073982	0.1729054096408409	-0.004748835333646569
142.592	-0.07135823215789898	0.06844697144380167	0.1188195697019041	0.8866608222845465	0.993407580412592	-0.2935465496302979	0.03433564712467873	-0.06049951281273761	0.03827993168565051	1.422474886826347	1.422474887238321	-0.3848741157118034	-0.2868089701856737	0.470659925548662	0.09398005034899325	0.0423786005576941	0.6048894044141475	0.6048894047528536	0.1914892788700205	-0.01404328006719835
142.596	-0.06794934657830996	0.07245830039868419	0.1241316455477745	0.8855039083270909	0.9900111623740994	-0.2937089804536438	0.04534626616152312	-0.06774819780626029	0.03236973100179492	1.454942574633866	1.454942574712821	-0.3849217291921698	-0.2933542749269752	0.4715274726997702	0.100452566048397	0.04709662003363844	0.6372080556787776	0.6372080562640465	0.2104855991562073	-0.02210722160166305
142.6	-0.0648428912862524	0.07626926097630547	0.1289435323835691	0.8843142162692617	0.9866779492879028	-0.2938258456677444	0.05704262680347928	-0.07481915288721215	0.02733507987625531	1.486482116831975	1.486482116566196	-0.3843956771283553	-0.2997134349359521	0.4720385531253198	0.1062898620805428	0.0512507185864367	0.6684712830731901	0.6684712839113223	0.2297596842009112	-0.02876469936382392
